<?xml version="1.0" standalone="no"?>
<!DOCTYPE svg PUBLIC "-//W3C//DTD SVG 20010904//EN"
 "http://www.w3.org/TR/2001/REC-SVG-20010904/DTD/svg10.dtd">
<svg version="1.0" xmlns="http://www.w3.org/2000/svg"
 width="366.000000pt" height="125.000000pt" viewBox="0 0 366.000000 125.000000"
 preserveAspectRatio="xMidYMid meet">

<g transform="translate(0.000000,125.000000) scale(0.100000,-0.100000)"
fill="#000000" stroke="none">
<path d="M350 1197 c-131 -37 -201 -131 -205 -274 -2 -62 -6 -78 -34 -119 -37
-56 -39 -76 -9 -101 17 -13 24 -30 25 -63 8 -160 12 -165 111 -165 l67 0 9
-37 c7 -29 5 -44 -11 -77 l-20 -41 237 0 237 0 -18 37 c-24 49 -49 148 -49
193 0 23 13 56 40 100 60 97 84 178 77 259 -3 36 -11 84 -17 105 -17 56 -111
147 -175 170 -65 23 -206 30 -265 13z m271 -53 c32 -14 68 -38 82 -52 72 -75
94 -217 47 -300 -71 -125 -251 -125 -316 0 -20 39 -17 107 6 145 20 34 85 73
120 73 64 0 130 -63 130 -123 0 -62 -56 -117 -119 -117 -28 0 -78 45 -83 75
-7 35 1 31 14 -6 14 -41 63 -63 106 -48 62 22 83 104 38 152 -51 55 -148 41
-179 -26 -21 -43 -21 -58 -3 -102 28 -65 119 -95 186 -60 75 39 94 162 34 226
-71 76 -176 77 -245 2 -39 -42 -49 -66 -49 -123 0 -87 48 -156 129 -185 64
-22 91 -19 184 20 15 6 13 -2 -12 -47 -38 -67 -41 -136 -11 -223 11 -32 20
-62 20 -67 0 -4 -80 -8 -177 -8 l-178 0 0 66 c0 82 -13 95 -96 93 -31 -1 -62
2 -68 5 -6 4 -11 25 -11 46 0 21 -4 41 -9 44 -5 3 -7 29 -5 57 3 44 1 52 -16
56 -28 7 -25 38 9 86 26 36 30 51 29 102 -1 33 4 79 11 103 13 47 69 115 112
138 78 40 229 39 320 -2z"/>
<path d="M1372 929 c-50 -9 -105 -41 -127 -72 -14 -21 -15 -20 -15 21 l0 42
-80 0 -80 0 0 -445 0 -445 85 0 85 0 0 183 c0 174 1 181 18 161 44 -55 159
-78 253 -51 72 21 130 73 168 149 28 54 31 71 31 147 -1 47 -7 103 -14 124
-36 98 -117 167 -220 186 -33 6 -60 11 -60 10 -1 -1 -20 -5 -44 -10z m97 -158
c60 -42 84 -108 69 -190 -16 -90 -83 -139 -175 -128 -84 9 -134 73 -134 171 0
59 15 98 54 135 46 42 135 48 186 12z"/>
<path d="M2085 929 c-73 -12 -120 -34 -170 -80 -75 -69 -108 -183 -85 -294 31
-150 149 -238 320 -239 110 -1 182 25 246 89 62 62 84 120 84 224 0 122 -53
217 -150 266 -35 18 -176 50 -192 44 -2 -1 -26 -5 -53 -10z m163 -156 c46 -34
66 -79 66 -148 0 -110 -60 -175 -163 -175 -72 0 -111 24 -141 85 -41 85 -12
207 59 246 48 26 139 22 179 -8z"/>
<path d="M2931 929 c-25 -5 -62 -22 -83 -39 l-38 -31 0 31 0 30 -85 0 -85 0 0
-300 0 -300 85 0 85 0 0 195 c0 209 5 237 52 269 34 24 92 20 125 -8 l28 -24
3 -216 3 -216 85 0 84 0 0 190 c0 205 7 243 51 274 38 27 96 21 130 -13 l29
-29 0 -211 0 -211 85 0 85 0 0 228 c0 125 -5 243 -10 264 -34 122 -245 166
-349 72 l-39 -34 -31 29 c-49 46 -132 65 -210 50z"/>
</g>
</svg>
